0
SECTION
2
HEADER
9
$INSUNITS
70
4
9
$ACADVER
1
AC1014
9
$HANDSEED
5
FFFF
0
ENDSEC
0
SECTION
2
TABLES
0
TABLE
2
VPORT
5
8
100
AcDbSymbolTable
0
ENDTAB
0
TABLE
2
LTYPE
5
5
100
AcDbSymbolTable
0
LTYPE
5
14
100
AcDbSymbolTableRecord
100
AcDbLinetypeTableRecord
2
BYBLOCK
70
0
0
LTYPE
5
15
100
AcDbSymbolTableRecord
100
AcDbLinetypeTableRecord
2
BYLAYER
70
0
0
LTYPE
5
16
100
AcDbSymbolTableRecord
100
AcDbLinetypeTableRecord
2
DASHED
70
0
3
Dashed __ __ __ __ __ __ __ __ __ __ __ __ __ _
72
65
73
2
40
0.75
49
0.5
74
0
49
-0.25
74
0
0
ENDTAB
0
TABLE
2
LAYER
5
2
100
AcDbSymbolTable
70
2
0
LAYER
5
50
100
AcDbSymbolTableRecord
100
AcDbLayerTableRecord
2
0
70
0
62
7
6
CONTINUOUS
0
ENDTAB
0
TABLE
2
STYLE
5
3
100
AcDbSymbolTable
70
1
0
STYLE
5
11
100
AcDbSymbolTableRecord
100
AcDbTextStyleTableRecord
2
STANDARD
70
0
0
ENDTAB
0
TABLE
2
VIEW
5
6
100
AcDbSymbolTable
70
0
0
ENDTAB
0
TABLE
2
UCS
5
7
100
AcDbSymbolTable
70
0
0
ENDTAB
0
TABLE
2
APPID
5
9
100
AcDbSymbolTable
70
2
0
APPID
5
12
100
AcDbSymbolTableRecord
100
AcDbRegAppTableRecord
2
ACAD
70
0
0
ENDTAB
0
TABLE
2
DIMSTYLE
5
A
100
AcDbSymbolTable
70
1
0
ENDTAB
0
TABLE
2
BLOCK_RECORD
5
1
100
AcDbSymbolTable
70
1
0
BLOCK_RECORD
5
1F
100
AcDbSymbolTableRecord
100
AcDbBlockTableRecord
2
*MODEL_SPACE
0
BLOCK_RECORD
5
1B
100
AcDbSymbolTableRecord
100
AcDbBlockTableRecord
2
*PAPER_SPACE
0
ENDTAB
0
ENDSEC
0
SECTION
2
BLOCKS
0
BLOCK
5
20
100
AcDbEntity
100
AcDbBlockBegin
2
*MODEL_SPACE
0
ENDBLK
5
21
100
AcDbEntity
100
AcDbBlockEnd
0
BLOCK
5
1C
100
AcDbEntity
100
AcDbBlockBegin
2
*PAPER_SPACE
0
ENDBLK
5
1D
100
AcDbEntity
100
AcDbBlockEnd
0
ENDSEC
0
SECTION
2
ENTITIES
0
LWPOLYLINE
5
100
100
AcDbEntity
8
0
100
AcDbPolyline
90
84
70
1
43
0.0
10
-100.17837837837838
20
-171.42857142857142
10
-100.17837837837838
20
-199.99999999999997
10
-81.818181818181813
20
-200
10
-81.818181818181813
20
-196.80000000000004
10
-40.909090909090899
20
-196.80000000000004
10
-40.909090909090899
20
-200
10
8.8817841970012523e-15
20
-200
10
7.9936057773011287e-15
20
-160
10
-3.1999999999999873
20
-160
10
-3.1999999999999895
20
-120
10
5.5511151231257827e-15
20
-120
10
2.6645352591003761e-15
20
-80
10
-3.1999999999999922
20
-80
10
-3.1999999999999948
20
-40
10
0
20
-40
10
0
20
0
10
-40.909090909090907
20
0
10
-40.909090909090907
20
-3.1999999999999673
10
-81.818181818181813
20
-3.1999999999999673
10
-81.818181818181813
20
0
10
-100.17837837837838
20
5.3290705182007522e-15
10
-100.17837837837838
20
-28.571428571428573
10
-103.37837837837839
20
-28.571428571428573
10
-103.37837837837839
20
4.4408920985006262e-15
10
-122.72727272727273
20
0
10
-122.72727272727273
20
-3.1999999999999673
10
-163.63636363636363
20
-3.1999999999999673
10
-163.63636363636363
20
0
10
-204.54545454545453
20
0
10
-204.54545454545453
20
-3.1999999999999673
10
-221.80000000000001
20
-3.2000000000000028
10
-221.80000000000001
20
-28.571428571428573
10
-225
20
-28.571428571428573
10
-225
20
-3.2000000000000028
10
-245.45454545454544
20
-3.1999999999999673
10
-245.45454545454544
20
0
10
-286.36363636363637
20
0
10
-286.36363636363637
20
-3.1999999999999673
10
-327.27272727272725
20
-3.1999999999999673
10
-327.27272727272725
20
0
10
-343.42162162162163
20
5.3290705182007522e-15
10
-343.42162162162163
20
-28.571428571428573
10
-346.62162162162161
20
-28.571428571428573
10
-346.62162162162161
20
4.4408920985006262e-15
10
-368.18181818181819
20
0
10
-368.18181818181819
20
-3.1999999999999673
10
-409.09090909090912
20
-3.1999999999999673
10
-409.09090909090912
20
0
10
-450
20
0
10
-450
20
-40
10
-446.80000000000001
20
-40
10
-446.80000000000001
20
-80
10
-450
20
-80
10
-450
20
-120
10
-446.80000000000001
20
-120
10
-446.80000000000001
20
-160
10
-450
20
-160
10
-450
20
-200
10
-409.09090909090912
20
-200
10
-409.09090909090912
20
-196.80000000000001
10
-368.18181818181819
20
-196.80000000000001
10
-368.18181818181819
20
-200
10
-346.62162162162161
20
-199.99999999999997
10
-346.62162162162161
20
-171.42857142857142
10
-343.42162162162163
20
-171.42857142857142
10
-343.42162162162163
20
-199.99999999999997
10
-327.27272727272725
20
-200
10
-327.27272727272725
20
-196.80000000000001
10
-286.36363636363637
20
-196.80000000000001
10
-286.36363636363637
20
-200
10
-245.45454545454544
20
-200
10
-245.45454545454544
20
-196.80000000000001
10
-225
20
-196.80000000000001
10
-225
20
-171.42857142857142
10
-221.80000000000001
20
-171.42857142857142
10
-221.80000000000001
20
-196.80000000000001
10
-204.54545454545453
20
-196.80000000000004
10
-204.54545454545453
20
-200
10
-163.63636363636363
20
-200
10
-163.63636363636363
20
-196.80000000000004
10
-122.72727272727273
20
-196.80000000000004
10
-122.72727272727273
20
-200
10
-103.37837837837839
20
-199.99999999999997
10
-103.37837837837839
20
-171.42857142857142
0
LWPOLYLINE
5
101
100
AcDbEntity
8
0
100
AcDbPolyline
90
4
70
1
43
0.0
10
-103.37837837837839
20
-142.85714285714286
10
-103.37837837837839
20
-114.28571428571429
10
-100.17837837837838
20
-114.28571428571429
10
-100.17837837837838
20
-142.85714285714286
0
LWPOLYLINE
5
102
100
AcDbEntity
8
0
100
AcDbPolyline
90
4
70
1
43
0.0
10
-103.37837837837839
20
-85.714285714285708
10
-103.37837837837839
20
-57.142857142857146
10
-100.17837837837838
20
-57.142857142857146
10
-100.17837837837838
20
-85.714285714285708
0
LWPOLYLINE
5
103
100
AcDbEntity
8
0
100
AcDbPolyline
90
4
70
1
43
0.0
10
-343.42162162162163
20
-85.714285714285708
10
-346.62162162162161
20
-85.714285714285708
10
-346.62162162162161
20
-57.142857142857146
10
-343.42162162162163
20
-57.142857142857146
0
LWPOLYLINE
5
104
100
AcDbEntity
8
0
100
AcDbPolyline
90
4
70
1
43
0.0
10
-343.42162162162163
20
-142.85714285714286
10
-346.62162162162161
20
-142.85714285714286
10
-346.62162162162161
20
-114.28571428571429
10
-343.42162162162163
20
-114.28571428571429
0
CIRCLE
5
105
100
AcDbEntity
8
0
100
AcDbCircle
10
-435
20
-122.49999999999999
30
0
40
1.4999999999999858
210
0
220
-0
230
1
0
CIRCLE
5
106
100
AcDbEntity
8
0
100
AcDbCircle
10
-135
20
-122.49999999999999
30
0
40
1.5000000000000036
210
0
220
-0
230
1
0
CIRCLE
5
107
100
AcDbEntity
8
0
100
AcDbCircle
10
-435
20
-77.499999999999986
30
0
40
1.5000000000000568
210
0
220
-0
230
1
0
CIRCLE
5
108
100
AcDbEntity
8
0
100
AcDbCircle
10
-135
20
-77.499999999999986
30
0
40
1.5000000000000036
210
0
220
-0
230
1
0
LWPOLYLINE
5
109
100
AcDbEntity
8
0
100
AcDbPolyline
90
4
70
1
43
0.0
10
-36.79999999999999
20
-93.200000000000017
10
-36.79999999999999
20
-90.000000000000014
10
-26.799999999999994
20
-90.000000000000014
10
-26.799999999999994
20
-93.200000000000017
0
LWPOLYLINE
5
110
100
AcDbEntity
8
0
100
AcDbPolyline
90
4
70
1
43
0.0
10
-16.799999999999997
20
-90.000000000000014
10
-16.799999999999997
20
-96.666666666666686
10
-19.999999999999996
20
-96.666666666666686
10
-19.999999999999996
20
-90.000000000000014
0
LWPOLYLINE
5
111
100
AcDbEntity
8
0
100
AcDbPolyline
90
4
70
1
43
0.0
10
-16.799999999999997
20
-103.33333333333336
10
-16.799999999999997
20
-110.00000000000001
10
-19.999999999999996
20
-110.00000000000001
10
-19.999999999999996
20
-103.33333333333336
0
LWPOLYLINE
5
112
100
AcDbEntity
8
0
100
AcDbPolyline
90
4
70
1
43
0.0
10
-36.79999999999999
20
-110.00000000000001
10
-36.79999999999999
20
-106.80000000000001
10
-26.799999999999994
20
-106.80000000000001
10
-26.799999999999994
20
-110.00000000000001
0
LWPOLYLINE
5
113
100
AcDbEntity
8
0
100
AcDbPolyline
90
4
70
1
43
0.0
10
-46.799999999999997
20
-110.00000000000001
10
-46.799999999999997
20
-103.33333333333336
10
-43.599999999999994
20
-103.33333333333336
10
-43.599999999999994
20
-110.00000000000001
0
LWPOLYLINE
5
114
100
AcDbEntity
8
0
100
AcDbPolyline
90
4
70
1
43
0.0
10
-43.599999999999994
20
-90.000000000000014
10
-43.599999999999994
20
-96.666666666666686
10
-46.799999999999997
20
-96.666666666666686
10
-46.799999999999997
20
-90.000000000000014
0
LWPOLYLINE
5
115
100
AcDbEntity
8
0
100
AcDbPolyline
90
4
70
1
43
0.0
10
-116.80000000000018
20
-90.000000000000014
10
-116.80000000000018
20
-96.666666666666686
10
-120.00000000000017
20
-96.666666666666686
10
-120.00000000000017
20
-90.000000000000014
0
LWPOLYLINE
5
116
100
AcDbEntity
8
0
100
AcDbPolyline
90
4
70
1
43
0.0
10
-116.80000000000018
20
-103.33333333333336
10
-116.80000000000018
20
-110.00000000000001
10
-120.00000000000017
20
-110.00000000000001
10
-120.00000000000017
20
-103.33333333333336
0
LWPOLYLINE
5
117
100
AcDbEntity
8
0
100
AcDbPolyline
90
4
70
1
43
0.0
10
-136.80000000000018
20
-93.200000000000017
10
-136.80000000000018
20
-90.000000000000014
10
-126.80000000000018
20
-90.000000000000014
10
-126.80000000000018
20
-93.200000000000017
0
LWPOLYLINE
5
118
100
AcDbEntity
8
0
100
AcDbPolyline
90
4
70
1
43
0.0
10
-146.80000000000018
20
-110.00000000000001
10
-146.80000000000018
20
-103.33333333333336
10
-143.60000000000016
20
-103.33333333333336
10
-143.60000000000016
20
-110.00000000000001
0
LWPOLYLINE
5
119
100
AcDbEntity
8
0
100
AcDbPolyline
90
4
70
1
43
0.0
10
-143.60000000000016
20
-90.000000000000014
10
-143.60000000000016
20
-96.666666666666686
10
-146.80000000000018
20
-96.666666666666686
10
-146.80000000000018
20
-90.000000000000014
0
LWPOLYLINE
5
120
100
AcDbEntity
8
0
100
AcDbPolyline
90
4
70
1
43
0.0
10
-136.80000000000018
20
-110.00000000000001
10
-136.80000000000018
20
-106.80000000000001
10
-126.80000000000018
20
-106.80000000000001
10
-126.80000000000018
20
-110.00000000000001
0
LWPOLYLINE
5
121
100
AcDbEntity
8
0
100
AcDbPolyline
90
4
70
1
43
0.0
10
-197.74999999999994
20
-88.200000000000244
10
-197.74999999999994
20
-85.000000000000256
10
-189.41666666666663
20
-85.000000000000256
10
-189.41666666666663
20
-88.200000000000244
0
LWPOLYLINE
5
122
100
AcDbEntity
8
0
100
AcDbPolyline
90
4
70
1
43
0.0
10
-181.08333333333326
20
-88.200000000000244
10
-181.08333333333326
20
-85.000000000000256
10
-172.74999999999994
20
-85.000000000000256
10
-172.74999999999994
20
-88.200000000000244
0
LWPOLYLINE
5
123
100
AcDbEntity
8
0
100
AcDbPolyline
90
4
70
1
43
0.0
10
-197.74999999999994
20
-115.00000000000026
10
-197.74999999999994
20
-111.80000000000024
10
-189.41666666666663
20
-111.80000000000024
10
-189.41666666666663
20
-115.00000000000026
0
LWPOLYLINE
5
124
100
AcDbEntity
8
0
100
AcDbPolyline
90
4
70
1
43
0.0
10
-181.08333333333326
20
-115.00000000000026
10
-181.08333333333326
20
-111.80000000000024
10
-172.74999999999994
20
-111.80000000000024
10
-172.74999999999994
20
-115.00000000000026
0
LWPOLYLINE
5
125
100
AcDbEntity
8
0
100
AcDbPolyline
90
4
70
1
43
0.0
10
-68.600000000000051
20
-20.000000000000028
10
-68.600000000000051
20
-180
10
-88.600000000000065
20
-180
10
-88.600000000000065
20
-20.000000000000036
0
LWPOLYLINE
5
126
100
AcDbEntity
8
0
100
AcDbPolyline
90
4
70
1
43
0.0
10
-221.80000000000001
20
-142.85714285714286
10
-225
20
-142.85714285714286
10
-225
20
-114.28571428571429
10
-221.80000000000001
20
-114.28571428571429
0
LWPOLYLINE
5
127
100
AcDbEntity
8
0
100
AcDbPolyline
90
4
70
1
43
0.0
10
-221.80000000000001
20
-85.714285714285708
10
-225
20
-85.714285714285708
10
-225
20
-57.142857142857146
10
-221.80000000000001
20
-57.142857142857146
0
ENDSEC
0
SECTION
2
OBJECTS
0
DICTIONARY
5
C
100
AcDbDictionary
3
ACAD_GROUP
350
D
3
ACAD_MLINESTYLE
350
17
0
DICTIONARY
5
D
100
AcDbDictionary
0
DICTIONARY
5
1A
330
C
100
AcDbDictionary
0
DICTIONARY
5
17
100
AcDbDictionary
0
ENDSEC
0
EOF
