0
SECTION
2
HEADER
9
$INSUNITS
70
4
9
$ACADVER
1
AC1014
9
$HANDSEED
5
FFFF
0
ENDSEC
0
SECTION
2
TABLES
0
TABLE
2
VPORT
5
8
100
AcDbSymbolTable
0
ENDTAB
0
TABLE
2
LTYPE
5
5
100
AcDbSymbolTable
0
LTYPE
5
14
100
AcDbSymbolTableRecord
100
AcDbLinetypeTableRecord
2
BYBLOCK
70
0
0
LTYPE
5
15
100
AcDbSymbolTableRecord
100
AcDbLinetypeTableRecord
2
BYLAYER
70
0
0
LTYPE
5
16
100
AcDbSymbolTableRecord
100
AcDbLinetypeTableRecord
2
DASHED
70
0
3
Dashed __ __ __ __ __ __ __ __ __ __ __ __ __ _
72
65
73
2
40
0.75
49
0.5
74
0
49
-0.25
74
0
0
ENDTAB
0
TABLE
2
LAYER
5
2
100
AcDbSymbolTable
70
2
0
LAYER
5
50
100
AcDbSymbolTableRecord
100
AcDbLayerTableRecord
2
0
70
0
62
7
6
CONTINUOUS
0
ENDTAB
0
TABLE
2
STYLE
5
3
100
AcDbSymbolTable
70
1
0
STYLE
5
11
100
AcDbSymbolTableRecord
100
AcDbTextStyleTableRecord
2
STANDARD
70
0
0
ENDTAB
0
TABLE
2
VIEW
5
6
100
AcDbSymbolTable
70
0
0
ENDTAB
0
TABLE
2
UCS
5
7
100
AcDbSymbolTable
70
0
0
ENDTAB
0
TABLE
2
APPID
5
9
100
AcDbSymbolTable
70
2
0
APPID
5
12
100
AcDbSymbolTableRecord
100
AcDbRegAppTableRecord
2
ACAD
70
0
0
ENDTAB
0
TABLE
2
DIMSTYLE
5
A
100
AcDbSymbolTable
70
1
0
ENDTAB
0
TABLE
2
BLOCK_RECORD
5
1
100
AcDbSymbolTable
70
1
0
BLOCK_RECORD
5
1F
100
AcDbSymbolTableRecord
100
AcDbBlockTableRecord
2
*MODEL_SPACE
0
BLOCK_RECORD
5
1B
100
AcDbSymbolTableRecord
100
AcDbBlockTableRecord
2
*PAPER_SPACE
0
ENDTAB
0
ENDSEC
0
SECTION
2
BLOCKS
0
BLOCK
5
20
100
AcDbEntity
100
AcDbBlockBegin
2
*MODEL_SPACE
0
ENDBLK
5
21
100
AcDbEntity
100
AcDbBlockEnd
0
BLOCK
5
1C
100
AcDbEntity
100
AcDbBlockBegin
2
*PAPER_SPACE
0
ENDBLK
5
1D
100
AcDbEntity
100
AcDbBlockEnd
0
ENDSEC
0
SECTION
2
ENTITIES
0
LWPOLYLINE
5
100
100
AcDbEntity
8
0
100
AcDbPolyline
90
84
70
1
43
0.0
10
346.62162162162161
20
20
10
346.62162162162161
20
3.2000000000000028
10
368.18181818181819
20
3.2000000000000006
10
368.18181818181819
20
0
10
409.09090909090912
20
0
10
409.09090909090912
20
3.2000000000000006
10
446.80000000000001
20
3.2000000000000028
10
446.80000000000001
20
20
10
450
20
20
10
450
20
40
10
446.80000000000001
20
40
10
446.80000000000001
20
60
10
450
20
60
10
450
20
80
10
446.80000000000001
20
80
10
446.80000000000001
20
96.799999999999997
10
409.09090909090912
20
96.799999999999997
10
409.09090909090912
20
100
10
368.18181818181819
20
100
10
368.18181818181819
20
96.799999999999997
10
346.62162162162161
20
96.799999999999997
10
346.62162162162161
20
80
10
343.42162162162163
20
80
10
343.42162162162163
20
96.799999999999997
10
327.27272727272725
20
96.799999999999997
10
327.27272727272725
20
100
10
286.36363636363637
20
100
10
286.36363636363637
20
96.799999999999997
10
245.45454545454544
20
96.799999999999997
10
245.45454545454544
20
100
10
225
20
100
10
225
20
80
10
221.80000000000001
20
80
10
221.80000000000001
20
100
10
204.54545454545453
20
100
10
204.54545454545453
20
96.799999999999997
10
163.63636363636363
20
96.799999999999997
10
163.63636363636363
20
100
10
122.72727272727273
20
100
10
122.72727272727273
20
96.799999999999997
10
103.37837837837839
20
96.799999999999997
10
103.37837837837839
20
80
10
100.17837837837838
20
80
10
100.17837837837838
20
96.799999999999997
10
81.818181818181813
20
96.799999999999997
10
81.818181818181813
20
100
10
40.909090909090907
20
100
10
40.909090909090907
20
96.799999999999997
10
3.2000000000000028
20
96.799999999999997
10
3.2000000000000006
20
80
10
0
20
80
10
0
20
60
10
3.2000000000000006
20
60
10
3.2000000000000006
20
40
10
0
20
40
10
0
20
20
10
3.2000000000000006
20
20
10
3.2000000000000006
20
3.2000000000000028
10
40.909090909090907
20
3.2000000000000006
10
40.909090909090907
20
0
10
81.818181818181813
20
0
10
81.818181818181813
20
3.2000000000000006
10
100.17837837837838
20
3.2000000000000028
10
100.17837837837838
20
20
10
103.37837837837839
20
20
10
103.37837837837839
20
3.2000000000000028
10
122.72727272727273
20
3.2000000000000006
10
122.72727272727273
20
0
10
163.63636363636363
20
0
10
163.63636363636363
20
3.2000000000000006
10
204.54545454545453
20
3.2000000000000006
10
204.54545454545453
20
0
10
221.80000000000001
20
0
10
221.80000000000001
20
20
10
225
20
20
10
225
20
0
10
245.45454545454544
20
0
10
245.45454545454544
20
3.2000000000000006
10
286.36363636363637
20
3.2000000000000006
10
286.36363636363637
20
0
10
327.27272727272725
20
0
10
327.27272727272725
20
3.2000000000000006
10
343.42162162162163
20
3.2000000000000028
10
343.42162162162163
20
20
0
LWPOLYLINE
5
101
100
AcDbEntity
8
0
100
AcDbPolyline
90
4
70
1
43
0.0
10
343.42162162162163
20
60
10
346.62162162162161
20
60
10
346.62162162162161
20
40
10
343.42162162162163
20
40
0
LWPOLYLINE
5
102
100
AcDbEntity
8
0
100
AcDbPolyline
90
4
70
1
43
0.0
10
103.37837837837839
20
60
10
103.37837837837839
20
40
10
100.17837837837838
20
40
10
100.17837837837838
20
60
0
LWPOLYLINE
5
103
100
AcDbEntity
8
0
100
AcDbPolyline
90
4
70
1
43
0.0
10
221.80000000000001
20
60
10
225
20
60
10
225
20
40
10
221.80000000000001
20
40
0
ENDSEC
0
SECTION
2
OBJECTS
0
DICTIONARY
5
C
100
AcDbDictionary
3
ACAD_GROUP
350
D
3
ACAD_MLINESTYLE
350
17
0
DICTIONARY
5
D
100
AcDbDictionary
0
DICTIONARY
5
1A
330
C
100
AcDbDictionary
0
DICTIONARY
5
17
100
AcDbDictionary
0
ENDSEC
0
EOF
