0
SECTION
2
HEADER
9
$INSUNITS
70
4
9
$ACADVER
1
AC1014
9
$HANDSEED
5
FFFF
0
ENDSEC
0
SECTION
2
TABLES
0
TABLE
2
VPORT
5
8
100
AcDbSymbolTable
0
ENDTAB
0
TABLE
2
LTYPE
5
5
100
AcDbSymbolTable
0
LTYPE
5
14
100
AcDbSymbolTableRecord
100
AcDbLinetypeTableRecord
2
BYBLOCK
70
0
0
LTYPE
5
15
100
AcDbSymbolTableRecord
100
AcDbLinetypeTableRecord
2
BYLAYER
70
0
0
LTYPE
5
16
100
AcDbSymbolTableRecord
100
AcDbLinetypeTableRecord
2
DASHED
70
0
3
Dashed __ __ __ __ __ __ __ __ __ __ __ __ __ _
72
65
73
2
40
0.75
49
0.5
74
0
49
-0.25
74
0
0
ENDTAB
0
TABLE
2
LAYER
5
2
100
AcDbSymbolTable
70
2
0
LAYER
5
50
100
AcDbSymbolTableRecord
100
AcDbLayerTableRecord
2
0
70
0
62
7
6
CONTINUOUS
0
ENDTAB
0
TABLE
2
STYLE
5
3
100
AcDbSymbolTable
70
1
0
STYLE
5
11
100
AcDbSymbolTableRecord
100
AcDbTextStyleTableRecord
2
STANDARD
70
0
0
ENDTAB
0
TABLE
2
VIEW
5
6
100
AcDbSymbolTable
70
0
0
ENDTAB
0
TABLE
2
UCS
5
7
100
AcDbSymbolTable
70
0
0
ENDTAB
0
TABLE
2
APPID
5
9
100
AcDbSymbolTable
70
2
0
APPID
5
12
100
AcDbSymbolTableRecord
100
AcDbRegAppTableRecord
2
ACAD
70
0
0
ENDTAB
0
TABLE
2
DIMSTYLE
5
A
100
AcDbSymbolTable
70
1
0
ENDTAB
0
TABLE
2
BLOCK_RECORD
5
1
100
AcDbSymbolTable
70
1
0
BLOCK_RECORD
5
1F
100
AcDbSymbolTableRecord
100
AcDbBlockTableRecord
2
*MODEL_SPACE
0
BLOCK_RECORD
5
1B
100
AcDbSymbolTableRecord
100
AcDbBlockTableRecord
2
*PAPER_SPACE
0
ENDTAB
0
ENDSEC
0
SECTION
2
BLOCKS
0
BLOCK
5
20
100
AcDbEntity
100
AcDbBlockBegin
2
*MODEL_SPACE
0
ENDBLK
5
21
100
AcDbEntity
100
AcDbBlockEnd
0
BLOCK
5
1C
100
AcDbEntity
100
AcDbBlockBegin
2
*PAPER_SPACE
0
ENDBLK
5
1D
100
AcDbEntity
100
AcDbBlockEnd
0
ENDSEC
0
SECTION
2
ENTITIES
0
LINE
5
100
100
AcDbEntity
8
0
100
AcDbLine
10
94.750000000000085
20
-57.250000000000412
30
0
11
91.000000000000057
21
-57.250000000000412
31
0
0
LINE
5
101
100
AcDbEntity
8
0
100
AcDbLine
10
91.000000000000014
20
0
30
0
11
91.000000000000057
21
-55.750000000000412
31
0
0
LINE
5
102
100
AcDbEntity
8
0
100
AcDbLine
10
93
20
-84
30
0
11
96.500000000000028
21
-84
31
0
0
LINE
5
103
100
AcDbEntity
8
0
100
AcDbLine
10
98.500000000000014
20
-82.000000000000014
30
0
11
98.500000000000014
21
0
31
0
0
LINE
5
104
100
AcDbEntity
8
0
100
AcDbLine
10
98.500000000000014
20
0
30
0
11
105.04728506071628
21
1.639195885602412e-11
31
0
0
LINE
5
105
100
AcDbEntity
8
0
100
AcDbLine
10
107.04728506071595
20
2.0000000000177165
30
0
11
107.04728506070204
21
23.000000000051919
31
0
0
LINE
5
106
100
AcDbEntity
8
0
100
AcDbLine
10
104.04728506070202
20
26.000000000049933
30
0
11
92.510000000000048
21
26.000000000049933
31
0
0
LINE
5
107
100
AcDbEntity
8
0
100
AcDbLine
10
89.510000000000048
20
23.00000000004993
30
0
11
89.510000000000062
21
1.9338821060382339
31
0
0
LINE
5
108
100
AcDbEntity
8
0
100
AcDbLine
10
91.000000000000057
20
-55.750000000000412
30
0
11
94.750000000000085
21
-55.750000000000412
31
0
0
ARC
5
109
100
AcDbEntity
8
0
100
AcDbCircle
10
94.750000000000085
20
-56.500000000000426
30
0
40
0.74999999999998401
210
0
220
0
230
1
100
AcDbArc
50
-90
51
90
0
LWPOLYLINE
5
110
100
AcDbEntity
8
0
100
AcDbPolyline
90
6
70
1
43
0.0
10
94.750000000000099
20
-45.002221399786592
10
92.150000000000091
20
-43.501110699893573
10
92.150000000000063
20
-40.498889300107521
10
94.750000000000028
20
-38.997778600214474
10
97.350000000000065
20
-40.498889300107486
10
97.35000000000008
20
-43.501110699893538
0
ARC
5
111
100
AcDbEntity
8
0
100
AcDbCircle
10
92.510000000000062
20
23.000000000049909
30
0
40
3.0000000000000249
210
0
220
0
230
1
100
AcDbArc
50
90.00000000000027
51
180
0
ARC
5
112
100
AcDbEntity
8
0
100
AcDbCircle
10
93
20
-82.000000000000014
30
0
40
1.9999999999999929
210
0
220
0
230
1
100
AcDbArc
50
180
51
270
0
ARC
5
113
100
AcDbEntity
8
0
100
AcDbCircle
10
96.500000000000028
20
-82.000000000000014
30
0
40
1.9999999999999929
210
0
220
0
230
1
100
AcDbArc
50
-90
51
0
0
ARC
5
114
100
AcDbEntity
8
0
100
AcDbCircle
10
104.04728506070201
20
23.000000000049905
30
0
40
3.0000000000000249
210
0
220
-0
230
1
100
AcDbArc
50
0
51
89.99999999999973
0
ARC
5
115
100
AcDbEntity
8
0
100
AcDbCircle
10
91.51000000000009
20
1.9338821060382738
30
0
40
2.0000000000000284
210
0
220
0
230
1
100
AcDbArc
50
180
51
255.2264148491943
0
LINE
5
116
100
AcDbEntity
8
0
100
AcDbLine
10
91.000000000000057
20
-57.250000000000412
30
0
11
91.000000000000014
21
-82.000000000000014
31
0
0
ARC
5
117
100
AcDbEntity
8
0
100
AcDbCircle
10
105.04728506071595
20
2.0000000000163807
30
0
40
1.9999999999999889
210
0
220
0
230
1
100
AcDbArc
50
-89.999999999990635
51
0
0
ENDSEC
0
SECTION
2
OBJECTS
0
DICTIONARY
5
C
100
AcDbDictionary
3
ACAD_GROUP
350
D
3
ACAD_MLINESTYLE
350
17
0
DICTIONARY
5
D
100
AcDbDictionary
0
DICTIONARY
5
1A
330
C
100
AcDbDictionary
0
DICTIONARY
5
17
100
AcDbDictionary
0
ENDSEC
0
EOF
