0
SECTION
2
HEADER
9
$INSUNITS
70
4
9
$ACADVER
1
AC1014
9
$HANDSEED
5
FFFF
0
ENDSEC
0
SECTION
2
TABLES
0
TABLE
2
VPORT
5
8
100
AcDbSymbolTable
0
ENDTAB
0
TABLE
2
LTYPE
5
5
100
AcDbSymbolTable
0
LTYPE
5
14
100
AcDbSymbolTableRecord
100
AcDbLinetypeTableRecord
2
BYBLOCK
70
0
0
LTYPE
5
15
100
AcDbSymbolTableRecord
100
AcDbLinetypeTableRecord
2
BYLAYER
70
0
0
LTYPE
5
16
100
AcDbSymbolTableRecord
100
AcDbLinetypeTableRecord
2
DASHED
70
0
3
Dashed __ __ __ __ __ __ __ __ __ __ __ __ __ _
72
65
73
2
40
0.75
49
0.5
74
0
49
-0.25
74
0
0
ENDTAB
0
TABLE
2
LAYER
5
2
100
AcDbSymbolTable
70
2
0
LAYER
5
50
100
AcDbSymbolTableRecord
100
AcDbLayerTableRecord
2
0
70
0
62
7
6
CONTINUOUS
0
ENDTAB
0
TABLE
2
STYLE
5
3
100
AcDbSymbolTable
70
1
0
STYLE
5
11
100
AcDbSymbolTableRecord
100
AcDbTextStyleTableRecord
2
STANDARD
70
0
0
ENDTAB
0
TABLE
2
VIEW
5
6
100
AcDbSymbolTable
70
0
0
ENDTAB
0
TABLE
2
UCS
5
7
100
AcDbSymbolTable
70
0
0
ENDTAB
0
TABLE
2
APPID
5
9
100
AcDbSymbolTable
70
2
0
APPID
5
12
100
AcDbSymbolTableRecord
100
AcDbRegAppTableRecord
2
ACAD
70
0
0
ENDTAB
0
TABLE
2
DIMSTYLE
5
A
100
AcDbSymbolTable
70
1
0
ENDTAB
0
TABLE
2
BLOCK_RECORD
5
1
100
AcDbSymbolTable
70
1
0
BLOCK_RECORD
5
1F
100
AcDbSymbolTableRecord
100
AcDbBlockTableRecord
2
*MODEL_SPACE
0
BLOCK_RECORD
5
1B
100
AcDbSymbolTableRecord
100
AcDbBlockTableRecord
2
*PAPER_SPACE
0
ENDTAB
0
ENDSEC
0
SECTION
2
BLOCKS
0
BLOCK
5
20
100
AcDbEntity
100
AcDbBlockBegin
2
*MODEL_SPACE
0
ENDBLK
5
21
100
AcDbEntity
100
AcDbBlockEnd
0
BLOCK
5
1C
100
AcDbEntity
100
AcDbBlockBegin
2
*PAPER_SPACE
0
ENDBLK
5
1D
100
AcDbEntity
100
AcDbBlockEnd
0
ENDSEC
0
SECTION
2
ENTITIES
0
LINE
5
100
100
AcDbEntity
8
0
100
AcDbLine
10
156.75000000000009
20
-57.250000000000398
30
0
11
152.00000000000006
21
-57.250000000000398
31
0
0
LINE
5
101
100
AcDbEntity
8
0
100
AcDbLine
10
152.00000000000006
20
-57.250000000000398
30
0
11
152
21
-82.000000000000014
31
0
0
LINE
5
102
100
AcDbEntity
8
0
100
AcDbLine
10
154
20
-84
30
0
11
159.50000000000003
21
-84
31
0
0
LINE
5
103
100
AcDbEntity
8
0
100
AcDbLine
10
161.50000000000003
20
-82.000000000000014
30
0
11
161.50000000000003
21
0
31
0
0
LINE
5
104
100
AcDbEntity
8
0
100
AcDbLine
10
151.53000000000003
20
2.5588033157232246e-11
30
0
11
152
21
0
31
0
0
LINE
5
105
100
AcDbEntity
8
0
100
AcDbLine
10
163.98000000000002
20
2.0000000000255902
30
0
11
163.98000000000002
21
18.499999999999986
31
0
0
LINE
5
106
100
AcDbEntity
8
0
100
AcDbLine
10
163.98000000000002
20
18.499999999999986
30
0
11
168.53000000000003
21
18.499999999999986
31
0
0
LINE
5
107
100
AcDbEntity
8
0
100
AcDbLine
10
170.53
20
20.499999999999989
30
0
11
170.53
21
22.999999999999989
31
0
0
LINE
5
108
100
AcDbEntity
8
0
100
AcDbLine
10
167.53
20
25.999999999999986
30
0
11
152.53000000000003
21
25.999999999999986
31
0
0
LINE
5
109
100
AcDbEntity
8
0
100
AcDbLine
10
149.53000000000003
20
22.999999999999989
30
0
11
149.53000000000003
21
2.0000000000255902
31
0
0
LINE
5
110
100
AcDbEntity
8
0
100
AcDbLine
10
152
20
0
30
0
11
152.00000000000006
21
-55.750000000000391
31
0
0
LINE
5
111
100
AcDbEntity
8
0
100
AcDbLine
10
152.00000000000006
20
-55.750000000000391
30
0
11
156.75000000000009
21
-55.750000000000391
31
0
0
ARC
5
112
100
AcDbEntity
8
0
100
AcDbCircle
10
156.75000000000006
20
-56.500000000000384
30
0
40
0.75000000000001066
210
0
220
0
230
1
100
AcDbArc
50
-89.999999999997868
51
89.999999999997826
0
LWPOLYLINE
5
113
100
AcDbEntity
8
0
100
AcDbPolyline
90
6
70
1
43
0.0
10
156.74999999999994
20
-45.002221399786634
10
154.15000000000003
20
-43.501110699893502
10
154.15000000000012
20
-40.498889300107457
10
156.75000000000017
20
-38.997778600214502
10
159.35000000000014
20
-40.498889300107628
10
159.35000000000002
20
-43.501110699893687
0
ARC
5
114
100
AcDbEntity
8
0
100
AcDbCircle
10
152.53000000000003
20
22.999999999999979
30
0
40
3.0000000000000071
210
0
220
-0
230
1
100
AcDbArc
50
90
51
180
0
ARC
5
115
100
AcDbEntity
8
0
100
AcDbCircle
10
154
20
-82.000000000000014
30
0
40
1.9999999999999929
210
0
220
0
230
1
100
AcDbArc
50
180
51
270
0
ARC
5
116
100
AcDbEntity
8
0
100
AcDbCircle
10
159.50000000000006
20
-82.000000000000028
30
0
40
1.9999999999999751
210
0
220
0
230
1
100
AcDbArc
50
-90.00000000000081
51
0
0
ARC
5
117
100
AcDbEntity
8
0
100
AcDbCircle
10
167.52999999999997
20
22.999999999999972
30
0
40
3.0000000000000426
210
0
220
-0
230
1
100
AcDbArc
50
0
51
89.99999999999946
0
ARC
5
118
100
AcDbEntity
8
0
100
AcDbCircle
10
168.53000000000003
20
20.499999999999975
30
0
40
1.9999999999999885
210
0
220
0
230
1
100
AcDbArc
50
-90
51
0
0
ARC
5
119
100
AcDbEntity
8
0
100
AcDbCircle
10
151.53000000000003
20
2.0000000000255853
30
0
40
1.9999999999999929
210
0
220
0
230
1
100
AcDbArc
50
180
51
270
0
LINE
5
120
100
AcDbEntity
8
0
100
AcDbLine
10
161.50000000000003
20
0
30
0
11
161.98000000000005
21
2.5588033157232246e-11
31
0
0
ARC
5
121
100
AcDbEntity
8
0
100
AcDbCircle
10
161.98000000000005
20
2.0000000000255951
30
0
40
2.0000000000000071
210
0
220
0
230
1
100
AcDbArc
50
270
51
360
0
ENDSEC
0
SECTION
2
OBJECTS
0
DICTIONARY
5
C
100
AcDbDictionary
3
ACAD_GROUP
350
D
3
ACAD_MLINESTYLE
350
17
0
DICTIONARY
5
D
100
AcDbDictionary
0
DICTIONARY
5
1A
330
C
100
AcDbDictionary
0
DICTIONARY
5
17
100
AcDbDictionary
0
ENDSEC
0
EOF
