0
SECTION
2
HEADER
9
$INSUNITS
70
4
9
$ACADVER
1
AC1014
9
$HANDSEED
5
FFFF
0
ENDSEC
0
SECTION
2
TABLES
0
TABLE
2
VPORT
5
8
100
AcDbSymbolTable
0
ENDTAB
0
TABLE
2
LTYPE
5
5
100
AcDbSymbolTable
0
LTYPE
5
14
100
AcDbSymbolTableRecord
100
AcDbLinetypeTableRecord
2
BYBLOCK
70
0
0
LTYPE
5
15
100
AcDbSymbolTableRecord
100
AcDbLinetypeTableRecord
2
BYLAYER
70
0
0
LTYPE
5
16
100
AcDbSymbolTableRecord
100
AcDbLinetypeTableRecord
2
DASHED
70
0
3
Dashed __ __ __ __ __ __ __ __ __ __ __ __ __ _
72
65
73
2
40
0.75
49
0.5
74
0
49
-0.25
74
0
0
ENDTAB
0
TABLE
2
LAYER
5
2
100
AcDbSymbolTable
70
2
0
LAYER
5
50
100
AcDbSymbolTableRecord
100
AcDbLayerTableRecord
2
0
70
0
62
7
6
CONTINUOUS
0
ENDTAB
0
TABLE
2
STYLE
5
3
100
AcDbSymbolTable
70
1
0
STYLE
5
11
100
AcDbSymbolTableRecord
100
AcDbTextStyleTableRecord
2
STANDARD
70
0
0
ENDTAB
0
TABLE
2
VIEW
5
6
100
AcDbSymbolTable
70
0
0
ENDTAB
0
TABLE
2
UCS
5
7
100
AcDbSymbolTable
70
0
0
ENDTAB
0
TABLE
2
APPID
5
9
100
AcDbSymbolTable
70
2
0
APPID
5
12
100
AcDbSymbolTableRecord
100
AcDbRegAppTableRecord
2
ACAD
70
0
0
ENDTAB
0
TABLE
2
DIMSTYLE
5
A
100
AcDbSymbolTable
70
1
0
ENDTAB
0
TABLE
2
BLOCK_RECORD
5
1
100
AcDbSymbolTable
70
1
0
BLOCK_RECORD
5
1F
100
AcDbSymbolTableRecord
100
AcDbBlockTableRecord
2
*MODEL_SPACE
0
BLOCK_RECORD
5
1B
100
AcDbSymbolTableRecord
100
AcDbBlockTableRecord
2
*PAPER_SPACE
0
ENDTAB
0
ENDSEC
0
SECTION
2
BLOCKS
0
BLOCK
5
20
100
AcDbEntity
100
AcDbBlockBegin
2
*MODEL_SPACE
0
ENDBLK
5
21
100
AcDbEntity
100
AcDbBlockEnd
0
BLOCK
5
1C
100
AcDbEntity
100
AcDbBlockBegin
2
*PAPER_SPACE
0
ENDBLK
5
1D
100
AcDbEntity
100
AcDbBlockEnd
0
ENDSEC
0
SECTION
2
ENTITIES
0
CIRCLE
5
100
100
AcDbEntity
8
0
100
AcDbCircle
10
-170.25000000000009
20
-42.000000000000625
30
0
40
1.5000000000000002
210
0
220
-0
230
1
0
LINE
5
101
100
AcDbEntity
8
0
100
AcDbLine
10
-165.50000000000009
20
-57.25000000000076
30
0
11
-170.25000000000009
21
-57.250000000000398
31
0
0
ARC
5
102
100
AcDbEntity
8
0
100
AcDbCircle
10
-170.25000000000006
20
-56.500000000000384
30
1.3342441432780241e-46
40
0.75000000000000178
210
-8.4010706251125413e-60
220
-3.0214023404186462e-32
230
1
100
AcDbArc
50
90.000000000002174
51
269.99999999999784
0
LINE
5
103
100
AcDbEntity
8
0
100
AcDbLine
10
-170.25000000000009
20
-55.750000000000384
30
2.2660517553140033e-32
11
-165.50000000000009
21
-55.750000000000746
31
0
0
LINE
5
104
100
AcDbEntity
8
0
100
AcDbLine
10
-165.50000000000009
20
-55.750000000000746
30
0
11
-165.50000000000006
21
0
31
1.7530239726240632e-30
0
LINE
5
105
100
AcDbEntity
8
0
100
AcDbLine
10
-189.74000000000012
20
2.9919804107621117e-11
30
0
11
-175.00000000000003
21
0
31
-1.9721522630525295e-30
0
LINE
5
106
100
AcDbEntity
8
0
100
AcDbLine
10
-165.00000000000006
20
2.9919804107621117e-11
30
0
11
-165.00000000000006
21
4.250000000029921
31
0
0
LINE
5
107
100
AcDbEntity
8
0
100
AcDbLine
10
-167.00000000000006
20
6.250000000029921
30
0
11
-169.50000000000006
21
6.250000000029921
31
0
0
LINE
5
108
100
AcDbEntity
8
0
100
AcDbLine
10
-171.50000000000009
20
8.250000000029921
30
0
11
-171.50000000000009
21
23.00000000004994
31
0
0
LINE
5
109
100
AcDbEntity
8
0
100
AcDbLine
10
-174.50000000000011
20
26.000000000049937
30
0
11
-188.74000000000012
21
26.000000000049937
31
0
0
LINE
5
110
100
AcDbEntity
8
0
100
AcDbLine
10
-191.74000000000009
20
23.00000000004994
30
0
11
-191.74000000000009
21
2.0000000000299201
31
0
0
LINE
5
111
100
AcDbEntity
8
0
100
AcDbLine
10
-175.00000000000003
20
0
30
9.8607613152626476e-31
11
-175.00000000000003
21
-82.000000000000014
31
0
0
LINE
5
112
100
AcDbEntity
8
0
100
AcDbLine
10
-173.00000000000006
20
-84
30
0
11
-167.50000000000003
21
-84
31
9.8607613152626476e-31
0
LINE
5
113
100
AcDbEntity
8
0
100
AcDbLine
10
-165.50000000000006
20
-82.000000000000014
30
0
11
-165.50000000000009
21
-57.25000000000076
31
0
0
ARC
5
114
100
AcDbEntity
8
0
100
AcDbCircle
10
-174.50000000000014
20
23.000000000049923
30
0
40
3.0000000000000426
210
0
220
-0
230
1
100
AcDbArc
50
0
51
89.99999999999946
0
ARC
5
115
100
AcDbEntity
8
0
100
AcDbCircle
10
-188.74000000000018
20
23.00000000004994
30
0
40
2.9999999999999982
210
0
220
-0
230
1
100
AcDbArc
50
89.99999999999892
51
180
0
ARC
5
116
100
AcDbEntity
8
0
100
AcDbCircle
10
-173.00000000000006
20
-82.000000000000028
30
5.7475132325822575e-46
40
1.9999999999999929
210
-4.4094673708282353e-47
220
2.739100416366448e-32
230
1
100
AcDbArc
50
180
51
270
0
ARC
5
117
100
AcDbEntity
8
0
100
AcDbCircle
10
-167.50000000000003
20
-82.000000000000014
30
0
40
1.9999999999999929
210
0
220
4.9303806576313413e-31
230
1
100
AcDbArc
50
-90
51
0
0
ARC
5
118
100
AcDbEntity
8
0
100
AcDbCircle
10
-167.00000000000006
20
4.2500000000299138
30
-1.94313792489625e-76
40
1.9999999999999929
210
-7.1968084696497367e-78
220
-2.7009614518829348e-62
230
1
100
AcDbArc
50
0
51
90
0
ARC
5
119
100
AcDbEntity
8
0
100
AcDbCircle
10
-169.50000000000006
20
8.250000000029921
30
0
40
2.0000000000000284
210
0
220
0
230
1
100
AcDbArc
50
180
51
270
0
ARC
5
120
100
AcDbEntity
8
0
100
AcDbCircle
10
-189.74000000000012
20
2.0000000000299085
30
2.8737566162911288e-46
40
1.9999999999999929
210
1.5965317508488628e-47
220
2.7391004163664458e-32
230
1
100
AcDbArc
50
180
51
270
0
LINE
5
121
100
AcDbEntity
8
0
100
AcDbLine
10
-165.50000000000006
20
0
30
1.7530239726240632e-30
11
-165.00000000000006
21
2.9919804107621117e-11
31
0
0
ENDSEC
0
SECTION
2
OBJECTS
0
DICTIONARY
5
C
100
AcDbDictionary
3
ACAD_GROUP
350
D
3
ACAD_MLINESTYLE
350
17
0
DICTIONARY
5
D
100
AcDbDictionary
0
DICTIONARY
5
1A
330
C
100
AcDbDictionary
0
DICTIONARY
5
17
100
AcDbDictionary
0
ENDSEC
0
EOF
