0
SECTION
2
HEADER
9
$INSUNITS
70
4
9
$ACADVER
1
AC1014
9
$HANDSEED
5
FFFF
0
ENDSEC
0
SECTION
2
TABLES
0
TABLE
2
VPORT
5
8
100
AcDbSymbolTable
0
ENDTAB
0
TABLE
2
LTYPE
5
5
100
AcDbSymbolTable
0
LTYPE
5
14
100
AcDbSymbolTableRecord
100
AcDbLinetypeTableRecord
2
BYBLOCK
70
0
0
LTYPE
5
15
100
AcDbSymbolTableRecord
100
AcDbLinetypeTableRecord
2
BYLAYER
70
0
0
LTYPE
5
16
100
AcDbSymbolTableRecord
100
AcDbLinetypeTableRecord
2
DASHED
70
0
3
Dashed __ __ __ __ __ __ __ __ __ __ __ __ __ _
72
65
73
2
40
0.75
49
0.5
74
0
49
-0.25
74
0
0
ENDTAB
0
TABLE
2
LAYER
5
2
100
AcDbSymbolTable
70
2
0
LAYER
5
50
100
AcDbSymbolTableRecord
100
AcDbLayerTableRecord
2
0
70
0
62
7
6
CONTINUOUS
0
ENDTAB
0
TABLE
2
STYLE
5
3
100
AcDbSymbolTable
70
1
0
STYLE
5
11
100
AcDbSymbolTableRecord
100
AcDbTextStyleTableRecord
2
STANDARD
70
0
0
ENDTAB
0
TABLE
2
VIEW
5
6
100
AcDbSymbolTable
70
0
0
ENDTAB
0
TABLE
2
UCS
5
7
100
AcDbSymbolTable
70
0
0
ENDTAB
0
TABLE
2
APPID
5
9
100
AcDbSymbolTable
70
2
0
APPID
5
12
100
AcDbSymbolTableRecord
100
AcDbRegAppTableRecord
2
ACAD
70
0
0
ENDTAB
0
TABLE
2
DIMSTYLE
5
A
100
AcDbSymbolTable
70
1
0
ENDTAB
0
TABLE
2
BLOCK_RECORD
5
1
100
AcDbSymbolTable
70
1
0
BLOCK_RECORD
5
1F
100
AcDbSymbolTableRecord
100
AcDbBlockTableRecord
2
*MODEL_SPACE
0
BLOCK_RECORD
5
1B
100
AcDbSymbolTableRecord
100
AcDbBlockTableRecord
2
*PAPER_SPACE
0
ENDTAB
0
ENDSEC
0
SECTION
2
BLOCKS
0
BLOCK
5
20
100
AcDbEntity
100
AcDbBlockBegin
2
*MODEL_SPACE
0
ENDBLK
5
21
100
AcDbEntity
100
AcDbBlockEnd
0
BLOCK
5
1C
100
AcDbEntity
100
AcDbBlockBegin
2
*PAPER_SPACE
0
ENDBLK
5
1D
100
AcDbEntity
100
AcDbBlockEnd
0
ENDSEC
0
SECTION
2
ENTITIES
0
CIRCLE
5
100
100
AcDbEntity
8
0
100
AcDbCircle
10
-156.75000000000009
20
-42.000000000000696
30
0
40
1.5000000000000002
210
0
220
-0
230
1
0
LINE
5
101
100
AcDbEntity
8
0
100
AcDbLine
10
-152.00000000000009
20
-57.250000000000398
30
0
11
-156.75000000000011
21
-57.250000000000398
31
0
0
ARC
5
102
100
AcDbEntity
8
0
100
AcDbCircle
10
-156.75000000000009
20
-56.500000000000384
30
1.2829270608442539e-47
40
0.75000000000000178
210
-6.5571827554264654e-47
220
-2.8228499703996354e-33
230
1
100
AcDbArc
50
90.000000000002174
51
269.99999999999784
0
LINE
5
103
100
AcDbEntity
8
0
100
AcDbLine
10
-156.75000000000011
20
-55.750000000000384
30
2.1171374777997444e-33
11
-152.00000000000009
21
-55.750000000000391
31
0
0
LINE
5
104
100
AcDbEntity
8
0
100
AcDbLine
10
-152.00000000000009
20
-55.750000000000391
30
0
11
-152.00000000000006
21
0
31
1.7530239726240667e-30
0
LINE
5
105
100
AcDbEntity
8
0
100
AcDbLine
10
-161.98000000000008
20
2.5588033157232246e-11
30
0
11
-161.50000000000006
21
0
31
1.4791141972893971e-30
0
LINE
5
106
100
AcDbEntity
8
0
100
AcDbLine
10
-149.53000000000006
20
2.000000000025588
30
0
11
-149.53000000000006
21
22.999999999999989
31
0
0
LINE
5
107
100
AcDbEntity
8
0
100
AcDbLine
10
-152.53000000000009
20
25.999999999999986
30
0
11
-167.53000000000003
21
25.999999999999986
31
0
0
LINE
5
108
100
AcDbEntity
8
0
100
AcDbLine
10
-170.53000000000003
20
22.999999999999989
30
0
11
-170.53000000000003
21
20.499999999999989
31
0
0
LINE
5
109
100
AcDbEntity
8
0
100
AcDbLine
10
-168.53000000000006
20
18.499999999999986
30
0
11
-163.98000000000008
21
18.499999999999986
31
0
0
LINE
5
110
100
AcDbEntity
8
0
100
AcDbLine
10
-163.98000000000008
20
18.499999999999986
30
0
11
-163.98000000000008
21
2.0000000000255902
31
0
0
LINE
5
111
100
AcDbEntity
8
0
100
AcDbLine
10
-161.50000000000006
20
0
30
-2.9582283945787943e-30
11
-161.50000000000006
21
-82.000000000000014
31
0
0
LINE
5
112
100
AcDbEntity
8
0
100
AcDbLine
10
-159.50000000000006
20
-84
30
0
11
-154.00000000000003
21
-84
31
0
0
LINE
5
113
100
AcDbEntity
8
0
100
AcDbLine
10
-152.00000000000006
20
-82.000000000000014
30
0
11
-152.00000000000009
21
-57.250000000000398
31
0
0
ARC
5
114
100
AcDbEntity
8
0
100
AcDbCircle
10
-152.53000000000009
20
22.999999999999979
30
1.0263416486754031e-47
40
3.0000000000000071
210
-1.009446934557547e-47
220
4.5651665953750937e-33
230
1
100
AcDbArc
50
0
51
90
0
ARC
5
115
100
AcDbEntity
8
0
100
AcDbCircle
10
-167.53000000000009
20
22.999999999999989
30
0
40
2.9999999999999982
210
0
220
-0
230
1
100
AcDbArc
50
89.99999999999892
51
180
0
ARC
5
116
100
AcDbEntity
8
0
100
AcDbCircle
10
-159.50000000000006
20
-82.000000000000014
30
-1.4368783081455644e-46
40
1.9999999999999929
210
7.1843915407278472e-47
220
-2.7391004163664458e-32
230
1
100
AcDbArc
50
180
51
270
0
ARC
5
117
100
AcDbEntity
8
0
100
AcDbCircle
10
-154.00000000000003
20
-82.000000000000014
30
0
40
1.9999999999999929
210
0
220
0
230
1
100
AcDbArc
50
-90
51
0
0
ARC
5
118
100
AcDbEntity
8
0
100
AcDbCircle
10
-168.53000000000006
20
20.499999999999993
30
-2.4632199568209675e-46
40
1.9999999999999929
210
6.2340750860840939e-47
220
2.7391004163664469e-32
230
1
100
AcDbArc
50
180
51
270
0
ARC
5
119
100
AcDbEntity
8
0
100
AcDbCircle
10
-161.98000000000008
20
2.0000000000255773
30
2.8737566162911288e-46
40
1.9999999999999929
210
3.4971644689803569e-47
220
2.7391004163664458e-32
230
1
100
AcDbArc
50
180
51
270
0
LINE
5
120
100
AcDbEntity
8
0
100
AcDbLine
10
-152.00000000000006
20
0
30
1.7530239726240667e-30
11
-151.53000000000006
21
2.5588033157232246e-11
31
2.7733391199176196e-30
0
ARC
5
121
100
AcDbEntity
8
0
100
AcDbCircle
10
-151.53000000000006
20
2.0000000000255853
30
0
40
1.9999999999999973
210
0
220
1.3866695599588117e-30
230
1
100
AcDbArc
50
-90
51
0
0
ENDSEC
0
SECTION
2
OBJECTS
0
DICTIONARY
5
C
100
AcDbDictionary
3
ACAD_GROUP
350
D
3
ACAD_MLINESTYLE
350
17
0
DICTIONARY
5
D
100
AcDbDictionary
0
DICTIONARY
5
1A
330
C
100
AcDbDictionary
0
DICTIONARY
5
17
100
AcDbDictionary
0
ENDSEC
0
EOF
