0
SECTION
2
HEADER
9
$INSUNITS
70
4
9
$ACADVER
1
AC1014
9
$HANDSEED
5
FFFF
0
ENDSEC
0
SECTION
2
TABLES
0
TABLE
2
VPORT
5
8
100
AcDbSymbolTable
0
ENDTAB
0
TABLE
2
LTYPE
5
5
100
AcDbSymbolTable
0
LTYPE
5
14
100
AcDbSymbolTableRecord
100
AcDbLinetypeTableRecord
2
BYBLOCK
70
0
0
LTYPE
5
15
100
AcDbSymbolTableRecord
100
AcDbLinetypeTableRecord
2
BYLAYER
70
0
0
LTYPE
5
16
100
AcDbSymbolTableRecord
100
AcDbLinetypeTableRecord
2
DASHED
70
0
3
Dashed __ __ __ __ __ __ __ __ __ __ __ __ __ _
72
65
73
2
40
0.75
49
0.5
74
0
49
-0.25
74
0
0
ENDTAB
0
TABLE
2
LAYER
5
2
100
AcDbSymbolTable
70
2
0
LAYER
5
50
100
AcDbSymbolTableRecord
100
AcDbLayerTableRecord
2
0
70
0
62
7
6
CONTINUOUS
0
ENDTAB
0
TABLE
2
STYLE
5
3
100
AcDbSymbolTable
70
1
0
STYLE
5
11
100
AcDbSymbolTableRecord
100
AcDbTextStyleTableRecord
2
STANDARD
70
0
0
ENDTAB
0
TABLE
2
VIEW
5
6
100
AcDbSymbolTable
70
0
0
ENDTAB
0
TABLE
2
UCS
5
7
100
AcDbSymbolTable
70
0
0
ENDTAB
0
TABLE
2
APPID
5
9
100
AcDbSymbolTable
70
2
0
APPID
5
12
100
AcDbSymbolTableRecord
100
AcDbRegAppTableRecord
2
ACAD
70
0
0
ENDTAB
0
TABLE
2
DIMSTYLE
5
A
100
AcDbSymbolTable
70
1
0
ENDTAB
0
TABLE
2
BLOCK_RECORD
5
1
100
AcDbSymbolTable
70
1
0
BLOCK_RECORD
5
1F
100
AcDbSymbolTableRecord
100
AcDbBlockTableRecord
2
*MODEL_SPACE
0
BLOCK_RECORD
5
1B
100
AcDbSymbolTableRecord
100
AcDbBlockTableRecord
2
*PAPER_SPACE
0
ENDTAB
0
ENDSEC
0
SECTION
2
BLOCKS
0
BLOCK
5
20
100
AcDbEntity
100
AcDbBlockBegin
2
*MODEL_SPACE
0
ENDBLK
5
21
100
AcDbEntity
100
AcDbBlockEnd
0
BLOCK
5
1C
100
AcDbEntity
100
AcDbBlockBegin
2
*PAPER_SPACE
0
ENDBLK
5
1D
100
AcDbEntity
100
AcDbBlockEnd
0
ENDSEC
0
SECTION
2
ENTITIES
0
CIRCLE
5
100
100
AcDbEntity
8
0
100
AcDbCircle
10
-112.75000000000006
20
-42.000000000000568
30
0
40
1.5000000000000002
210
0
220
-0
230
1
0
LINE
5
101
100
AcDbEntity
8
0
100
AcDbLine
10
-108.0000000000001
20
-57.250000000000426
30
0
11
-112.75000000000006
21
-57.250000000000412
31
0
0
ARC
5
102
100
AcDbEntity
8
0
100
AcDbCircle
10
-112.75000000000006
20
-56.500000000000412
30
-1.3513498374226141e-46
40
0.75000000000000178
210
0
220
-3.0214023404186818e-32
230
1
100
AcDbArc
50
90
51
270
0
LINE
5
103
100
AcDbEntity
8
0
100
AcDbLine
10
-112.75000000000006
20
-55.750000000000412
30
2.266051755314003e-32
11
-108.0000000000001
21
-55.750000000000398
31
0
0
LINE
5
104
100
AcDbEntity
8
0
100
AcDbLine
10
-108.00000000000014
20
-82.000000000000014
30
0
11
-108.0000000000001
21
-57.250000000000426
31
-5.2590730932741038e-30
0
LINE
5
105
100
AcDbEntity
8
0
100
AcDbLine
10
-111.00000000000009
20
26.000000000049933
30
0
11
-124.81116541400007
21
26.000000000049933
31
0
0
LINE
5
106
100
AcDbEntity
8
0
100
AcDbLine
10
-127.81116541400009
20
23.00000000004993
30
0
11
-127.81116541400009
21
2.0000000000196305
31
0
0
LINE
5
107
100
AcDbEntity
8
0
100
AcDbLine
10
-125.81116541400041
20
1.9632029955869446e-11
30
0
11
-117.50000000000003
21
0
31
-9.8607613152626476e-31
0
LINE
5
108
100
AcDbEntity
8
0
100
AcDbLine
10
-117.50000000000003
20
0
30
-9.8607613152626476e-31
11
-117.50000000000003
21
-82.000000000000014
31
0
0
LINE
5
109
100
AcDbEntity
8
0
100
AcDbLine
10
-115.50000000000004
20
-84
30
0
11
-110.00000000000014
21
-84
31
-4.9303806576313238e-31
0
ARC
5
110
100
AcDbEntity
8
0
100
AcDbCircle
10
-111.0000000000001
20
23.000000000049909
30
0
40
3.0000000000000249
210
0
220
-0
230
1
100
AcDbArc
50
0
51
89.99999999999973
0
ARC
5
111
100
AcDbEntity
8
0
100
AcDbCircle
10
-124.81116541400006
20
23.000000000049909
30
0
40
3.0000000000000249
210
0
220
0
230
1
100
AcDbArc
50
90.00000000000027
51
180
0
ARC
5
112
100
AcDbEntity
8
0
100
AcDbCircle
10
-115.50000000000004
20
-82.000000000000014
30
0
40
1.9999999999999929
210
0
220
0
230
1
100
AcDbArc
50
180
51
270
0
ARC
5
113
100
AcDbEntity
8
0
100
AcDbCircle
10
-110.00000000000014
20
-82.000000000000014
30
0
40
1.9999999999999929
210
0
220
-2.4651903288156707e-31
230
1
100
AcDbArc
50
-90
51
0
0
LINE
5
114
100
AcDbEntity
8
0
100
AcDbLine
10
-108.0000000000001
20
-55.750000000000398
30
0
11
-108.00000000000009
21
23.00000000004993
31
0
0
ARC
5
115
100
AcDbEntity
8
0
100
AcDbCircle
10
-125.8111654140001
20
2.0000000000196092
30
1.5395124730131047e-46
40
1.9999999999999751
210
-4.7391953643252328e-48
220
6.8489252950082441e-33
230
1
100
AcDbArc
50
180
51
269.99999999999108
0
ENDSEC
0
SECTION
2
OBJECTS
0
DICTIONARY
5
C
100
AcDbDictionary
3
ACAD_GROUP
350
D
3
ACAD_MLINESTYLE
350
17
0
DICTIONARY
5
D
100
AcDbDictionary
0
DICTIONARY
5
1A
330
C
100
AcDbDictionary
0
DICTIONARY
5
17
100
AcDbDictionary
0
ENDSEC
0
EOF
