0
SECTION
2
HEADER
9
$INSUNITS
70
4
9
$ACADVER
1
AC1014
9
$HANDSEED
5
FFFF
0
ENDSEC
0
SECTION
2
TABLES
0
TABLE
2
VPORT
5
8
100
AcDbSymbolTable
0
ENDTAB
0
TABLE
2
LTYPE
5
5
100
AcDbSymbolTable
0
LTYPE
5
14
100
AcDbSymbolTableRecord
100
AcDbLinetypeTableRecord
2
BYBLOCK
70
0
0
LTYPE
5
15
100
AcDbSymbolTableRecord
100
AcDbLinetypeTableRecord
2
BYLAYER
70
0
0
LTYPE
5
16
100
AcDbSymbolTableRecord
100
AcDbLinetypeTableRecord
2
DASHED
70
0
3
Dashed __ __ __ __ __ __ __ __ __ __ __ __ __ _
72
65
73
2
40
0.75
49
0.5
74
0
49
-0.25
74
0
0
ENDTAB
0
TABLE
2
LAYER
5
2
100
AcDbSymbolTable
70
2
0
LAYER
5
50
100
AcDbSymbolTableRecord
100
AcDbLayerTableRecord
2
0
70
0
62
7
6
CONTINUOUS
0
ENDTAB
0
TABLE
2
STYLE
5
3
100
AcDbSymbolTable
70
1
0
STYLE
5
11
100
AcDbSymbolTableRecord
100
AcDbTextStyleTableRecord
2
STANDARD
70
0
0
ENDTAB
0
TABLE
2
VIEW
5
6
100
AcDbSymbolTable
70
0
0
ENDTAB
0
TABLE
2
UCS
5
7
100
AcDbSymbolTable
70
0
0
ENDTAB
0
TABLE
2
APPID
5
9
100
AcDbSymbolTable
70
2
0
APPID
5
12
100
AcDbSymbolTableRecord
100
AcDbRegAppTableRecord
2
ACAD
70
0
0
ENDTAB
0
TABLE
2
DIMSTYLE
5
A
100
AcDbSymbolTable
70
1
0
ENDTAB
0
TABLE
2
BLOCK_RECORD
5
1
100
AcDbSymbolTable
70
1
0
BLOCK_RECORD
5
1F
100
AcDbSymbolTableRecord
100
AcDbBlockTableRecord
2
*MODEL_SPACE
0
BLOCK_RECORD
5
1B
100
AcDbSymbolTableRecord
100
AcDbBlockTableRecord
2
*PAPER_SPACE
0
ENDTAB
0
ENDSEC
0
SECTION
2
BLOCKS
0
BLOCK
5
20
100
AcDbEntity
100
AcDbBlockBegin
2
*MODEL_SPACE
0
ENDBLK
5
21
100
AcDbEntity
100
AcDbBlockEnd
0
BLOCK
5
1C
100
AcDbEntity
100
AcDbBlockBegin
2
*PAPER_SPACE
0
ENDBLK
5
1D
100
AcDbEntity
100
AcDbBlockEnd
0
ENDSEC
0
SECTION
2
ENTITIES
0
LWPOLYLINE
5
100
100
AcDbEntity
8
0
100
AcDbPolyline
90
4
70
1
43
0.0
10
-418.00000000000017
20
163.0499999999999
10
-427.90000000000009
20
163.0499999999999
10
-427.89999999999998
20
169.84999999999962
10
-418
20
169.8499999999996
0
LWPOLYLINE
5
101
100
AcDbEntity
8
0
100
AcDbPolyline
90
4
70
1
43
0.0
10
-407.89999999999975
20
159.40000000000015
10
-398
20
159.40000000000015
10
-397.99999999999983
20
152.60000000000028
10
-407.89999999999975
20
152.60000000000016
0
LWPOLYLINE
5
102
100
AcDbEntity
8
0
100
AcDbPolyline
90
4
70
1
43
0.0
10
-379.00000000000045
20
163.0499999999999
10
-388.89999999999975
20
163.0499999999999
10
-388.89999999999998
20
169.84999999999968
10
-379
20
169.84999999999968
0
LWPOLYLINE
5
103
100
AcDbEntity
8
0
100
AcDbPolyline
90
4
70
1
43
0.0
10
-370.90000000000003
20
159.40000000000015
10
-361.00000000000011
20
159.40000000000015
10
-361
20
152.60000000000022
10
-370.90000000000003
20
152.60000000000014
0
LWPOLYLINE
5
104
100
AcDbEntity
8
0
100
AcDbPolyline
90
4
70
1
43
0.0
10
-353.89999999999998
20
159.40000000000015
10
-344.00000000000006
20
159.40000000000012
10
-344.00000000000006
20
152.60000000000022
10
-353.89999999999998
20
152.60000000000014
0
LWPOLYLINE
5
105
100
AcDbEntity
8
0
100
AcDbPolyline
90
4
70
1
43
0.0
10
-329.00000000000011
20
163.04999999999993
10
-338.9000000000002
20
163.04999999999993
10
-338.89999999999998
20
169.84999999999971
10
-329.00000000000006
20
169.84999999999971
0
LWPOLYLINE
5
106
100
AcDbEntity
8
0
100
AcDbPolyline
90
4
70
1
43
0.0
10
-324.89999999999998
20
159.40000000000009
10
-314.99999999999994
20
159.40000000000009
10
-315
20
152.60000000000019
10
-324.89999999999998
20
152.60000000000014
0
LWPOLYLINE
5
107
100
AcDbEntity
8
0
100
AcDbPolyline
90
4
70
1
43
0.0
10
-298.00000000000017
20
163.04999999999993
10
-307.89999999999998
20
163.04999999999993
10
-307.89999999999998
20
169.8499999999998
10
-298
20
169.84999999999974
0
LWPOLYLINE
5
108
100
AcDbEntity
8
0
100
AcDbPolyline
90
4
70
1
43
0.0
10
-295.39999999999998
20
159.40000000000009
10
-285.5
20
159.40000000000009
10
-285.5
20
152.60000000000016
10
-295.39999999999998
20
152.60000000000008
0
LWPOLYLINE
5
109
100
AcDbEntity
8
0
100
AcDbPolyline
90
4
70
1
43
0.0
10
-281.90000000000003
20
159.40000000000009
10
-272
20
159.40000000000009
10
-272
20
152.60000000000014
10
-281.90000000000003
20
152.60000000000011
0
LWPOLYLINE
5
110
100
AcDbEntity
8
0
100
AcDbPolyline
90
4
70
1
43
0.0
10
-260.00000000000006
20
163.04999999999995
10
-269.9000000000002
20
163.04999999999995
10
-269.89999999999998
20
169.8499999999998
10
-260
20
169.84999999999982
0
LWPOLYLINE
5
111
100
AcDbEntity
8
0
100
AcDbPolyline
90
4
70
1
43
0.0
10
-258.89999999999998
20
159.40000000000009
10
-249
20
159.40000000000006
10
-249
20
152.60000000000014
10
-258.89999999999998
20
152.60000000000008
0
LWPOLYLINE
5
112
100
AcDbEntity
8
0
100
AcDbPolyline
90
4
70
1
43
0.0
10
-238.00000000000009
20
163.04999999999995
10
-247.90000000000006
20
163.04999999999995
10
-247.89999999999998
20
169.84999999999985
10
-238
20
169.84999999999985
0
LWPOLYLINE
5
113
100
AcDbEntity
8
0
100
AcDbPolyline
90
4
70
1
43
0.0
10
-237.89999999999998
20
159.40000000000009
10
-228.00000000000011
20
159.40000000000009
10
-228.00000000000011
20
152.60000000000008
10
-237.89999999999998
20
152.60000000000008
0
LWPOLYLINE
5
114
100
AcDbEntity
8
0
100
AcDbPolyline
90
4
70
1
43
0.0
10
-218
20
163.04999999999995
10
-227.89999999999995
20
163.04999999999995
10
-227.89999999999998
20
169.84999999999985
10
-218
20
169.84999999999988
0
LWPOLYLINE
5
115
100
AcDbEntity
8
0
100
AcDbPolyline
90
4
70
1
43
0.0
10
-218.90000000000001
20
159.40000000000003
10
-211
20
159.40000000000003
10
-211
20
152.60000000000011
10
-218.90000000000001
20
152.60000000000008
0
LWPOLYLINE
5
116
100
AcDbEntity
8
0
100
AcDbPolyline
90
4
70
1
43
0.0
10
-209.30000000000001
20
159.40000000000003
10
-201.40000000000001
20
159.40000000000003
10
-201.40000000000001
20
152.60000000000005
10
-209.30000000000001
20
152.60000000000008
0
LWPOLYLINE
5
117
100
AcDbEntity
8
0
100
AcDbPolyline
90
4
70
1
43
0.0
10
-193.29999999999998
20
163.05000000000001
10
-203.19999999999993
20
163.05000000000001
10
-203.19999999999999
20
169.84999999999997
10
-193.30000000000001
20
169.84999999999991
0
LWPOLYLINE
5
118
100
AcDbEntity
8
0
100
AcDbPolyline
90
4
70
1
43
0.0
10
-195.39999999999998
20
159.40000000000003
10
-185.49999999999997
20
159.40000000000003
10
-185.5
20
152.60000000000008
10
-195.39999999999998
20
152.60000000000005
0
LWPOLYLINE
5
119
100
AcDbEntity
8
0
100
AcDbPolyline
90
4
70
1
43
0.0
10
-178.30000000000001
20
163.05000000000001
10
-188.19999999999993
20
163.05000000000001
10
-188.19999999999999
20
169.84999999999997
10
-178.30000000000001
20
169.84999999999991
0
LWPOLYLINE
5
120
100
AcDbEntity
8
0
100
AcDbPolyline
90
4
70
1
43
0.0
10
-179.90000000000003
20
159.40000000000003
10
-172.00000000000003
20
159.40000000000003
10
-172.00000000000003
20
152.60000000000008
10
-179.90000000000003
20
152.60000000000002
0
LWPOLYLINE
5
121
100
AcDbEntity
8
0
100
AcDbPolyline
90
4
70
1
43
0.0
10
-170.90000000000001
20
159.40000000000003
10
-163
20
159.40000000000003
10
-163
20
152.60000000000005
10
-170.90000000000001
20
152.60000000000005
0
LWPOLYLINE
5
122
100
AcDbEntity
8
0
100
AcDbPolyline
90
4
70
1
43
0.0
10
-156.30000000000001
20
163.05000000000001
10
-164.20000000000002
20
163.05000000000001
10
-164.20000000000002
20
169.84999999999999
10
-156.30000000000001
20
169.84999999999999
0
LWPOLYLINE
5
123
100
AcDbEntity
8
0
100
AcDbPolyline
90
4
70
1
43
0.0
10
-157.69999999999999
20
159.40000000000003
10
-149.79999999999998
20
159.40000000000003
10
-149.80000000000001
20
152.60000000000002
10
-157.70000000000002
20
152.60000000000005
0
LWPOLYLINE
5
124
100
AcDbEntity
8
0
100
AcDbPolyline
90
12
70
1
43
0.0
10
-446.80000000000001
20
164.84999999999999
10
-450
20
164.84999999999999
10
-450
20
157.60000000000005
10
-446.80000000000001
20
157.60000000000005
10
-446.80000000000001
20
147.60000000000005
10
-123.2
20
147.60000000000005
10
-123.19999999999999
20
157.60000000000005
10
-120
20
157.60000000000005
10
-120
20
164.84999999999999
10
-123.2
20
164.84999999999999
10
-123.2
20
174.84999999999999
10
-446.80000000000001
20
174.84999999999999
0
ENDSEC
0
SECTION
2
OBJECTS
0
DICTIONARY
5
C
100
AcDbDictionary
3
ACAD_GROUP
350
D
3
ACAD_MLINESTYLE
350
17
0
DICTIONARY
5
D
100
AcDbDictionary
0
DICTIONARY
5
1A
330
C
100
AcDbDictionary
0
DICTIONARY
5
17
100
AcDbDictionary
0
ENDSEC
0
EOF
