0
SECTION
2
HEADER
9
$INSUNITS
70
4
9
$ACADVER
1
AC1014
9
$HANDSEED
5
FFFF
0
ENDSEC
0
SECTION
2
TABLES
0
TABLE
2
VPORT
5
8
100
AcDbSymbolTable
0
ENDTAB
0
TABLE
2
LTYPE
5
5
100
AcDbSymbolTable
0
LTYPE
5
14
100
AcDbSymbolTableRecord
100
AcDbLinetypeTableRecord
2
BYBLOCK
70
0
0
LTYPE
5
15
100
AcDbSymbolTableRecord
100
AcDbLinetypeTableRecord
2
BYLAYER
70
0
0
LTYPE
5
16
100
AcDbSymbolTableRecord
100
AcDbLinetypeTableRecord
2
DASHED
70
0
3
Dashed __ __ __ __ __ __ __ __ __ __ __ __ __ _
72
65
73
2
40
0.75
49
0.5
74
0
49
-0.25
74
0
0
ENDTAB
0
TABLE
2
LAYER
5
2
100
AcDbSymbolTable
70
2
0
LAYER
5
50
100
AcDbSymbolTableRecord
100
AcDbLayerTableRecord
2
0
70
0
62
7
6
CONTINUOUS
0
ENDTAB
0
TABLE
2
STYLE
5
3
100
AcDbSymbolTable
70
1
0
STYLE
5
11
100
AcDbSymbolTableRecord
100
AcDbTextStyleTableRecord
2
STANDARD
70
0
0
ENDTAB
0
TABLE
2
VIEW
5
6
100
AcDbSymbolTable
70
0
0
ENDTAB
0
TABLE
2
UCS
5
7
100
AcDbSymbolTable
70
0
0
ENDTAB
0
TABLE
2
APPID
5
9
100
AcDbSymbolTable
70
2
0
APPID
5
12
100
AcDbSymbolTableRecord
100
AcDbRegAppTableRecord
2
ACAD
70
0
0
ENDTAB
0
TABLE
2
DIMSTYLE
5
A
100
AcDbSymbolTable
70
1
0
ENDTAB
0
TABLE
2
BLOCK_RECORD
5
1
100
AcDbSymbolTable
70
1
0
BLOCK_RECORD
5
1F
100
AcDbSymbolTableRecord
100
AcDbBlockTableRecord
2
*MODEL_SPACE
0
BLOCK_RECORD
5
1B
100
AcDbSymbolTableRecord
100
AcDbBlockTableRecord
2
*PAPER_SPACE
0
ENDTAB
0
ENDSEC
0
SECTION
2
BLOCKS
0
BLOCK
5
20
100
AcDbEntity
100
AcDbBlockBegin
2
*MODEL_SPACE
0
ENDBLK
5
21
100
AcDbEntity
100
AcDbBlockEnd
0
BLOCK
5
1C
100
AcDbEntity
100
AcDbBlockBegin
2
*PAPER_SPACE
0
ENDBLK
5
1D
100
AcDbEntity
100
AcDbBlockEnd
0
ENDSEC
0
SECTION
2
ENTITIES
0
LWPOLYLINE
5
100
100
AcDbEntity
8
0
100
AcDbPolyline
90
180
70
1
43
0.0
10
-157.25
20
190.00000000000003
10
-157.25
20
180
10
-157.75
20
180
10
-157.75
20
190.00000000000003
10
-162.95000000000002
20
190.00000000000003
10
-162.95000000000002
20
180
10
-163.45000000000002
20
180
10
-163.44999999999999
20
190.00000000000003
10
-163.75
20
190.00000000000003
10
-163.75
20
180
10
-164.25
20
180
10
-164.25
20
190.00000000000003
10
-170.45000000000002
20
190.00000000000003
10
-170.45000000000002
20
180
10
-170.95000000000002
20
180
10
-170.94999999999999
20
190.00000000000003
10
-171.94999999999999
20
190.00000000000003
10
-171.95000000000005
20
180
10
-172.45000000000005
20
180
10
-172.45000000000005
20
190.00000093877318
10
-179.25000000000006
20
190.00000000000006
10
-179.25000000000006
20
180
10
-179.94999999999999
20
179.99999999999997
10
-179.94999999999999
20
190.00000000000003
10
-186.45000000000005
20
190.00000000000003
10
-186.45000000000005
20
180
10
-187.25
20
179.99999999999997
10
-187.24999999999997
20
190.00000000000003
10
-193.94999999999999
20
190.00000000000003
10
-193.95000000000005
20
180
10
-194.75
20
180
10
-194.75
20
190
10
-201.35000000000002
20
190
10
-201.34999999999997
20
180
10
-202.25
20
180
10
-202.25
20
189.99999999999994
10
-208.84999999999997
20
190
10
-208.84999999999997
20
180
10
-209.34999999999999
20
180
10
-209.35000000000002
20
190
10
-210.95000000000002
20
190
10
-210.94999999999999
20
180
10
-211.44999999999999
20
180
10
-211.45000000000005
20
190
10
-218.45000000000002
20
190
10
-218.44999999999999
20
180
10
-219.44999999999999
20
180
10
-219.44999999999999
20
190
10
-226.44999999999999
20
190
10
-226.44999999999999
20
180
10
-226.94999999999999
20
180
10
-226.94999999999999
20
189.99999999999986
10
-228.95000000000005
20
190
10
-228.95000000000005
20
180
10
-229.45000000000005
20
180
10
-229.45000000000007
20
190
10
-236.45000000000007
20
190
10
-236.45000000000005
20
180
10
-236.95000000000005
20
180
10
-236.95000000000007
20
190
10
-238.95000000000005
20
190
10
-238.94999999999999
20
180
10
-239.44999999999999
20
180
10
-239.44999999999999
20
190
10
-246.44999999999999
20
190
10
-246.44999999999999
20
180
10
-246.94999999999999
20
180
10
-246.94999999999999
20
190
10
-249.94999999999999
20
190
10
-249.94999999999999
20
180
10
-250.44999999999999
20
180
10
-250.45000000000002
20
190
10
-257.44999999999999
20
190
10
-257.44999999999999
20
180
10
-257.94999999999999
20
180
10
-257.95000000000005
20
190
10
-260.94999999999999
20
190
10
-260.94999999999999
20
180
10
-261.44999999999999
20
180
10
-261.44999999999993
20
190
10
-268.44999999999993
20
190
10
-268.44999999999999
20
180
10
-268.94999999999999
20
180
10
-268.94999999999993
20
190
10
-272.94999999999993
20
190
10
-272.95000000000005
20
180
10
-273.45000000000005
20
180
10
-273.45000000000005
20
190
10
-280.45000000000005
20
190
10
-280.45000000000005
20
180
10
-280.95000000000005
20
180
10
-280.95000000000005
20
190
10
-286.44999999999993
20
190
10
-286.44999999999993
20
180
10
-286.94999999999999
20
180
10
-286.94999999999999
20
190
10
-293.95000000000005
20
190
10
-293.95000000000005
20
180
10
-294.45000000000005
20
180
10
-294.45000000000005
20
190
10
-298.94999999999993
20
190
10
-298.94999999999993
20
180
10
-299.44999999999999
20
180
10
-299.44999999999999
20
190
10
-306.45000000000005
20
190
10
-306.45000000000005
20
180
10
-306.95000000000005
20
180
10
-306.95000000000005
20
190
10
-315.94999999999993
20
190
10
-315.94999999999993
20
180
10
-316.44999999999993
20
180
10
-316.44999999999993
20
190.00000000000006
10
-323.44999999999999
20
190.00000000000006
10
-323.44999999999999
20
180
10
-323.94999999999993
20
179.99999999999997
10
-323.94999999999993
20
190
10
-329.94999999999999
20
190
10
-329.94999999999999
20
180
10
-330.45000000000005
20
180
10
-330.45000000000005
20
190
10
-337.45000000000005
20
190
10
-337.45000000000005
20
180
10
-337.95000000000005
20
180
10
-337.95000000000005
20
190
10
-344.95000000000005
20
190
10
-344.95000000000005
20
180
10
-345.45000000000005
20
180
10
-345.45000000000005
20
190
10
-352.44999999999999
20
190
10
-352.44999999999999
20
180
10
-352.95000000000005
20
180
10
-352.94999999999993
20
190
10
-361.94999999999993
20
190
10
-361.94999999999993
20
180
10
-362.44999999999999
20
180
10
-362.44999999999999
20
190
10
-369.44999999999999
20
190
10
-369.44999999999999
20
180
10
-369.95000000000005
20
180
10
-369.95000000000005
20
190
10
-379.95000000000005
20
190
10
-379.95000000000005
20
180
10
-380.45000000000005
20
180
10
-380.45000000000005
20
190
10
-387.44999999999999
20
190
10
-387.44999999999999
20
180
10
-387.95000000000005
20
180
10
-387.94999999999993
20
190
10
-398.94999999999993
20
190
10
-398.94999999999993
20
180
10
-399.44999999999993
20
180
10
-399.44999999999993
20
190
10
-406.44999999999987
20
190
10
-406.44999999999987
20
180
10
-406.94999999999993
20
180
10
-406.94999999999987
20
190
10
-418.94999999999993
20
190
10
-418.94999999999993
20
180
10
-419.44999999999999
20
180
10
-419.44999999999999
20
190
10
-426.45000000000005
20
190
10
-426.45000000000005
20
180
10
-426.95000000000005
20
180
10
-426.95000000000005
20
190
10
-450
20
190
10
-450
20
180
10
-446.80000000000007
20
180
10
-446.80000000000001
20
171
10
-123.2
20
171.0000000000002
10
-123.2
20
180
10
-120
20
180
10
-119.99999999999997
20
190.00000000000003
10
-149.75
20
190.00000000000003
10
-149.75
20
180
10
-150.25
20
180
10
-150.25
20
190.00000000000003
10
-156.25000000000003
20
190.00000000000003
10
-156.25
20
180
10
-156.75
20
180
10
-156.75
20
190.00000000000003
0
ENDSEC
0
SECTION
2
OBJECTS
0
DICTIONARY
5
C
100
AcDbDictionary
3
ACAD_GROUP
350
D
3
ACAD_MLINESTYLE
350
17
0
DICTIONARY
5
D
100
AcDbDictionary
0
DICTIONARY
5
1A
330
C
100
AcDbDictionary
0
DICTIONARY
5
17
100
AcDbDictionary
0
ENDSEC
0
EOF
